<svg width="600" height="408" viewBox="0 0 600 408" fill="none" xmlns="http://www.w3.org/2000/svg">
  <path
    d="M549.671 90.6596C554.532 90.6569 559.193 88.8102 562.63 85.5252C566.067 82.2403 567.999 77.7859 568 73.141C567.997 68.4969 566.065 64.0438 562.628 60.76C559.192 57.4761 554.531 55.6301 549.671 55.6274C544.81 55.6301 540.15 57.4761 536.713 60.76C533.276 64.0438 531.344 68.4969 531.342 73.141C531.342 75.266 531.758 77.2953 532.485 79.1836L478.978 122.736L411.184 84.6321C411.569 83.1365 411.796 81.5755 411.796 79.9641C411.793 74.7859 409.639 69.8204 405.807 66.1589C401.974 62.4973 396.778 60.439 391.358 60.4364C386.96 60.4349 382.68 61.7992 379.163 64.3238L317.91 17.8509C318.457 15.7305 318.493 13.5188 318.014 11.3833C317.535 9.24772 316.553 7.24426 315.144 5.52447C313.736 3.80468 311.936 2.41361 309.881 1.4565C307.827 0.499399 305.571 0.0013419 303.285 8.80736e-07C301.305 -0.000660806 299.344 0.371522 297.514 1.09529C295.685 1.81906 294.022 2.88021 292.622 4.21812C291.222 5.55604 290.111 7.14448 289.354 8.89267C288.596 10.6409 288.207 12.5145 288.208 14.4066C288.208 18.0775 289.657 21.4211 292.023 23.9641L261.272 86.8477C259.902 86.6211 258.5 86.4751 257.056 86.4751C252.695 86.4763 248.414 87.6019 244.666 89.733L163.307 54.9124C163.497 53.7794 163.624 52.6263 163.624 51.4429C163.622 45.6886 161.229 40.1704 156.971 36.1015C152.712 32.0326 146.937 29.7462 140.915 29.7448C134.893 29.7462 129.117 32.0326 124.859 36.1015C120.601 40.1704 118.208 45.6886 118.206 51.4429C118.208 57.1972 120.601 62.7154 124.859 66.7843C129.117 70.8532 134.893 73.1397 140.915 73.141C144.295 73.1429 147.634 72.4222 150.685 71.0316C153.736 69.641 156.423 67.6158 158.549 65.1043L235.923 98.2179C233.827 101.72 232.724 105.685 232.725 109.719C232.725 114.009 234.269 117.801 236.382 121.25L192.994 162.728C187.007 158.644 179.787 156.212 171.898 156.212C157.974 156.212 145.995 163.77 139.845 174.763L139.339 174.602C139.334 174.662 139.318 174.718 139.313 174.778L78.8232 148.513C78.9075 147.838 78.9549 147.148 78.9549 146.453C78.9549 144.072 78.4641 141.714 77.5103 139.514C76.5566 137.314 75.1588 135.315 73.3965 133.631C71.6343 131.947 69.5423 130.612 67.2398 129.701C64.9374 128.789 62.4696 128.32 59.9775 128.32C57.4853 128.32 55.0176 128.789 52.7151 129.701C50.4126 130.612 48.3206 131.947 46.5584 133.631C44.7962 135.315 43.3983 137.314 42.4446 139.514C41.4909 141.714 41 144.072 41 146.453C40.9993 148.835 41.4897 151.193 42.4432 153.393C43.3966 155.593 44.7945 157.593 46.5568 159.277C48.3192 160.96 50.4115 162.296 52.7143 163.207C55.017 164.118 57.4851 164.587 59.9775 164.586C65.5321 164.586 70.5123 162.295 73.98 158.659L135.761 185.494L135.682 185.68L135.977 185.776C135.692 187.528 135.408 189.27 135.408 191.088C135.405 195.766 136.391 200.396 138.306 204.7C140.222 209.005 143.027 212.896 146.554 216.14L146.464 216.205L115.05 260.598C114.233 260.463 113.395 260.377 112.53 260.377C108.788 260.38 105.2 261.801 102.554 264.33C99.9078 266.858 98.42 270.286 98.4172 273.862C98.42 277.438 99.9078 280.866 102.554 283.395C105.2 285.923 108.788 287.345 112.53 287.347C116.273 287.345 119.861 285.923 122.507 283.395C125.153 280.866 126.641 277.438 126.644 273.862C126.644 271.431 125.951 269.047 124.641 266.963L152.91 227.163L156.651 222.746C161.429 224.868 166.634 225.97 171.903 225.974C181.926 225.974 191.028 222.092 197.637 215.823L234.49 240.955C233.441 243.543 232.73 246.293 232.73 249.218C232.734 255.383 235.299 261.294 239.861 265.653C244.423 270.012 250.61 272.463 257.062 272.467C268.44 272.467 277.957 265 280.624 254.934L364.502 230.144C369.651 239.283 379.748 245.502 391.374 245.502C398.083 245.502 404.27 243.402 409.308 239.892L446.831 273.182C446.626 274.172 446.521 275.179 446.52 276.188C446.52 280.382 448.263 284.404 451.367 287.369C454.47 290.334 458.679 292 463.068 292C467.456 291.999 471.664 290.332 474.766 287.367C477.868 284.402 479.611 280.381 479.611 276.188C479.609 271.997 477.866 267.977 474.764 265.013C471.662 262.049 467.455 260.383 463.068 260.382C459.486 260.38 456.002 261.496 453.144 263.559L417.25 231.72C420.159 227.253 421.956 222.001 421.956 216.361C421.956 202.186 413.203 190.378 397.393 187.775V98.6711C402.663 97.805 403.095 96.2641 405.366 94.2499L475.626 133.769L534.54 212.6C534.036 213.792 533.774 215.065 533.771 216.351C533.771 222.016 538.567 226.609 544.496 226.609C547.341 226.605 550.069 225.523 552.082 223.6C554.094 221.677 555.226 219.07 555.231 216.351C555.226 213.631 554.093 211.024 552.08 209.101C550.066 207.178 547.337 206.097 544.49 206.094C544.332 206.094 544.174 206.109 544.016 206.119L487.468 130.486L539.805 87.89C542.746 89.701 546.172 90.6627 549.671 90.6596ZM360.861 216.351C360.861 217.409 360.929 218.446 361.045 219.473L280.545 243.261C277.794 233.316 268.34 225.964 257.051 225.964C251.133 225.964 245.91 228.235 241.699 231.569L204.609 206.28C206.964 201.648 208.387 196.562 208.387 191.088C208.374 183.863 205.997 176.822 201.589 170.951L244.977 129.473C248.593 131.493 252.556 132.968 257.051 132.968C265.705 132.968 273.278 128.653 277.588 122.157L368.349 197.257C363.701 202.378 360.861 209.04 360.861 216.351ZM386.842 187.765C381.572 188.268 380.86 189.139 378.431 190.292L281.673 110.5C281.683 110.238 281.552 109.986 281.552 109.724C281.552 102.246 277.768 95.6145 272.034 91.3645L302.595 28.7831L303.301 28.8183C306.094 28.8183 308.692 28.0781 310.937 26.8091L372.181 73.282C371.385 75.3717 371.585 77.6176 371.585 79.9692C371.585 88.8166 376.302 96.2742 386.842 98.6761V187.765Z"
    fill="url(#paint0_linear)"/>
  <path
    d="M19.2621 406.62H4.20191C2.97163 406.62 2.08085 406.359 1.52957 405.838C0.979261 405.317 0.704102 404.473 0.704102 403.308V343.694C0.704102 342.529 0.979261 341.685 1.52957 341.163C2.07989 340.642 2.97067 340.382 4.20191 340.382H19.2621C20.4923 340.382 21.3831 340.642 21.9344 341.163C22.4847 341.684 22.7599 342.528 22.7599 343.694V363.658H38.9855V343.694C38.9855 342.529 39.2606 341.685 39.8109 341.163C40.3613 340.642 41.252 340.382 42.4833 340.382H57.5434C58.7737 340.382 59.6645 340.642 60.2157 341.163C60.7661 341.684 61.0412 342.528 61.0412 343.694V403.308C61.0412 404.473 60.7661 405.316 60.2157 405.838C59.6654 406.359 58.7747 406.62 57.5434 406.62H42.4833C41.253 406.62 40.3622 406.359 39.8109 405.838C39.2606 405.317 38.9855 404.473 38.9855 403.308V382.884H22.7599V403.308C22.7599 404.473 22.4847 405.316 21.9344 405.838C21.3841 406.359 20.4933 406.62 19.2621 406.62ZM99.8095 359.701L95.2428 373.685H110.497L105.931 359.701C105.671 359.149 105.396 358.75 105.105 358.504C104.813 358.259 104.473 358.136 104.085 358.136H101.656C101.267 358.136 100.927 358.259 100.636 358.504C100.344 358.75 100.069 359.149 99.811 359.701H99.8095ZM94.2718 390.428V403.308C94.2718 404.473 93.9967 405.316 93.4463 405.838C92.896 406.359 92.0052 406.62 90.774 406.62H76.4918C75.2615 406.62 74.3707 406.359 73.8194 405.838C73.2691 405.317 72.994 404.473 72.994 403.308V379.021C72.994 377.181 73.3018 375.065 73.9174 372.673C74.533 370.281 75.4886 367.491 76.7842 364.302L85.2377 343.418C85.6267 342.375 86.226 341.609 87.0356 341.118C87.8452 340.627 88.8979 340.382 90.1934 340.382H116.33C117.561 340.382 118.581 340.627 119.392 341.118C120.201 341.609 120.801 342.376 121.19 343.418L129.643 364.302C130.939 367.491 131.894 370.281 132.51 372.673C133.126 375.064 133.433 377.18 133.433 379.021V403.308C133.433 404.473 133.158 405.316 132.608 405.838C132.058 406.359 131.167 406.62 129.936 406.62H115.264C113.969 406.62 113.013 406.359 112.398 405.838C111.782 405.317 111.474 404.473 111.474 403.308V390.428H94.2761H94.2718ZM177.832 406.62H147.128C145.898 406.62 145.007 406.359 144.455 405.838C143.905 405.317 143.63 404.473 143.63 403.308V392.544C143.63 391.379 143.905 390.536 144.455 390.014C145.006 389.493 145.897 389.232 147.128 389.232H173.265C174.107 389.232 174.739 388.972 175.159 388.451C175.58 387.93 175.79 387.301 175.79 386.564C175.79 385.521 175.58 384.754 175.159 384.264C174.739 383.773 174.107 383.497 173.265 383.436L158.69 381.505C154.156 380.892 150.512 379.482 147.759 377.274C145.006 375.066 143.63 371.386 143.63 366.234V356.574C143.63 351.361 145.411 347.359 148.973 344.568C152.535 341.777 157.458 340.382 163.742 340.382H190.948C192.179 340.382 193.069 340.642 193.621 341.163C194.171 341.684 194.446 342.528 194.446 343.694V354.641C194.446 355.806 194.171 356.65 193.621 357.172C193.07 357.693 192.18 357.953 190.948 357.953H168.309C167.467 357.953 166.819 358.214 166.366 358.735C165.912 359.256 165.686 359.915 165.686 360.713C165.686 361.51 165.912 362.185 166.366 362.737C166.819 363.289 167.467 363.595 168.309 363.656L182.786 365.496C187.32 366.109 190.98 367.52 193.765 369.728C196.55 371.936 197.942 375.615 197.942 380.767V390.427C197.942 395.64 196.145 399.643 192.55 402.433C188.955 405.224 184.049 406.62 177.83 406.62H177.832ZM227.093 406.62H212.033C210.803 406.62 209.912 406.359 209.361 405.838C208.81 405.317 208.535 404.473 208.535 403.308V343.694C208.535 342.529 208.81 341.685 209.361 341.163C209.911 340.642 210.802 340.382 212.033 340.382H227.093C228.324 340.382 229.214 340.642 229.766 341.163C230.316 341.684 230.591 342.528 230.591 343.694V363.658H246.817V343.694C246.817 342.529 247.092 341.685 247.642 341.163C248.192 340.642 249.083 340.382 250.314 340.382H265.375C266.605 340.382 267.496 340.642 268.047 341.163C268.597 341.684 268.872 342.528 268.872 343.694V403.308C268.872 404.473 268.597 405.316 268.047 405.838C267.497 406.359 266.606 406.62 265.375 406.62H250.314C249.084 406.62 248.193 406.359 247.642 405.838C247.092 405.317 246.817 404.473 246.817 403.308V382.884H230.591V403.308C230.591 404.473 230.316 405.316 229.766 405.838C229.215 406.359 228.325 406.62 227.093 406.62ZM328.822 406.62H305.114C297.017 406.62 291.009 405.086 287.09 402.02C283.172 398.954 281.213 394.231 281.213 387.852V359.241C281.213 352.863 283.172 348.125 287.09 345.028C291.009 341.93 297.017 340.382 305.114 340.382H328.822C330.052 340.382 330.943 340.642 331.494 341.163C332.045 341.684 332.32 342.528 332.32 343.694V354.826C332.32 355.99 332.045 356.834 331.494 357.356C330.944 357.877 330.053 358.137 328.822 358.137H309.293C307.285 358.137 305.795 358.521 304.824 359.287C303.852 360.054 303.366 361.204 303.366 362.737V384.633C303.366 386.166 303.852 387.285 304.824 387.991C305.796 388.697 307.286 389.049 309.293 389.049H328.822C330.052 389.049 330.943 389.31 331.494 389.831C332.045 390.352 332.32 391.195 332.32 392.361V403.309C332.32 404.474 332.045 405.317 331.494 405.839C330.944 406.36 330.053 406.621 328.822 406.621V406.62ZM402.081 357.861V389.232C402.081 392.053 401.644 394.614 400.769 396.914C399.894 399.214 398.34 401.177 396.106 402.802C393.871 404.427 390.794 405.699 386.876 406.62C382.957 407.54 377.986 408 371.961 408C365.938 408 360.95 407.54 356.998 406.62C353.046 405.699 349.953 404.427 347.719 402.802C345.484 401.177 343.929 399.214 343.055 396.914C342.18 394.615 341.743 392.054 341.743 389.232V357.861C341.743 355.04 342.18 352.479 343.055 350.178C343.93 347.879 345.485 345.901 347.719 344.245C349.953 342.589 353.046 341.301 356.998 340.38C360.949 339.46 365.937 339 371.961 339C377.985 339 382.956 339.46 386.876 340.38C390.794 341.301 393.871 342.589 396.106 344.245C398.341 345.901 399.895 347.879 400.769 350.178C401.644 352.478 402.081 355.039 402.081 357.861ZM363.8 361.172V385.92C363.8 387.147 364.286 388.174 365.258 389.002C366.23 389.83 368.465 390.244 371.963 390.244C375.46 390.244 377.695 389.83 378.667 389.002C379.639 388.173 380.125 387.146 380.125 385.92V361.172C380.125 360.008 379.639 359.011 378.667 358.182C377.695 357.354 375.46 356.94 371.963 356.94C368.465 356.94 366.23 357.354 365.258 358.182C364.286 359.011 363.8 360.008 363.8 361.172ZM450.663 406.62H417.919C416.689 406.62 415.798 406.359 415.247 405.838C414.697 405.317 414.422 404.473 414.422 403.308V343.694C414.422 342.529 414.697 341.685 415.247 341.163C415.798 340.642 416.688 340.382 417.919 340.382H450.663C458.76 340.382 464.768 341.915 468.687 344.981C472.605 348.048 474.564 352.77 474.564 359.15V387.853C474.564 394.231 472.605 398.954 468.687 402.021C464.768 405.088 458.76 406.621 450.663 406.621V406.62ZM448.04 357.953H436.477V389.232H448.04C449.595 389.232 450.744 388.864 451.489 388.129C452.234 387.393 452.607 386.259 452.607 384.725V362.37C452.607 360.837 452.234 359.717 451.489 359.012C450.743 358.306 449.594 357.953 448.04 357.953ZM535.485 406.62H490.402C489.172 406.62 488.281 406.359 487.73 405.838C487.18 405.317 486.905 404.473 486.905 403.308V343.694C486.905 342.529 487.18 341.685 487.73 341.163C488.28 340.642 489.171 340.382 490.402 340.382H535.485C536.715 340.382 537.606 340.642 538.157 341.163C538.708 341.684 538.983 342.528 538.983 343.694V354.457C538.983 355.622 538.708 356.466 538.157 356.988C537.607 357.509 536.716 357.769 535.485 357.769H508.668V364.853H527.615C528.845 364.853 529.736 365.113 530.287 365.634C530.838 366.155 531.113 366.999 531.113 368.165V378.009C531.113 379.174 530.838 380.017 530.287 380.539C529.737 381.06 528.846 381.321 527.615 381.321H508.668V389.232H535.485C536.715 389.232 537.606 389.493 538.157 390.014C538.708 390.535 538.983 391.378 538.983 392.544V403.308C538.983 404.473 538.708 405.316 538.157 405.838C537.607 406.359 536.716 406.62 535.485 406.62ZM596.502 406.62H572.794C564.697 406.62 558.689 405.086 554.77 402.02C550.852 398.954 548.893 394.231 548.893 387.852V359.241C548.893 352.863 550.852 348.125 554.77 345.028C558.689 341.93 564.697 340.382 572.794 340.382H596.502C597.732 340.382 598.623 340.642 599.174 341.163C599.725 341.684 600 342.528 600 343.694V354.826C600 355.99 599.725 356.834 599.174 357.356C598.624 357.877 597.733 358.137 596.502 358.137H576.973C574.965 358.137 573.475 358.521 572.504 359.287C571.532 360.054 571.046 361.204 571.046 362.737V384.633C571.046 386.166 571.532 387.285 572.504 387.991C573.476 388.697 574.966 389.049 576.973 389.049H596.502C597.732 389.049 598.623 389.31 599.174 389.831C599.725 390.352 600 391.195 600 392.361V403.309C600 404.474 599.725 405.317 599.174 405.839C598.624 406.36 597.733 406.621 596.502 406.621V406.62Z"
    fill="#042440"/>
  <path
    d="M549.671 90.6596C554.532 90.6569 559.193 88.8102 562.63 85.5252C566.067 82.2403 567.999 77.7859 568 73.141C567.997 68.4969 566.065 64.0438 562.628 60.76C559.192 57.4761 554.531 55.6301 549.671 55.6274C544.81 55.6301 540.15 57.4761 536.713 60.76C533.276 64.0438 531.344 68.4969 531.342 73.141C531.342 75.266 531.758 77.2953 532.485 79.1836L478.978 122.736L411.184 84.6321C411.569 83.1365 411.796 81.5755 411.796 79.9641C411.793 74.7859 409.639 69.8204 405.807 66.1589C401.974 62.4973 396.778 60.439 391.358 60.4364C386.96 60.4349 382.68 61.7992 379.163 64.3238L317.91 17.8509C318.457 15.7305 318.493 13.5188 318.014 11.3833C317.535 9.24772 316.553 7.24426 315.144 5.52447C313.736 3.80468 311.936 2.41361 309.881 1.4565C307.827 0.499399 305.571 0.0013419 303.285 8.80736e-07C301.305 -0.000660806 299.344 0.371522 297.514 1.09529C295.685 1.81906 294.022 2.88021 292.622 4.21812C291.222 5.55604 290.111 7.14448 289.354 8.89267C288.596 10.6409 288.207 12.5145 288.208 14.4066C288.208 18.0775 289.657 21.4211 292.023 23.9641L261.272 86.8477C259.902 86.6211 258.5 86.4751 257.056 86.4751C252.695 86.4763 248.414 87.6019 244.666 89.733L163.307 54.9124C163.497 53.7794 163.624 52.6263 163.624 51.4429C163.622 45.6886 161.229 40.1704 156.971 36.1015C152.712 32.0326 146.937 29.7462 140.915 29.7448C134.893 29.7462 129.117 32.0326 124.859 36.1015C120.601 40.1704 118.208 45.6886 118.206 51.4429C118.208 57.1972 120.601 62.7154 124.859 66.7843C129.117 70.8532 134.893 73.1397 140.915 73.141C144.295 73.1429 147.634 72.4222 150.685 71.0316C153.736 69.641 156.423 67.6158 158.549 65.1043L235.923 98.2179C233.827 101.72 232.724 105.685 232.725 109.719C232.725 114.009 234.269 117.801 236.382 121.25L192.994 162.728C187.007 158.644 179.787 156.212 171.898 156.212C157.974 156.212 145.995 163.77 139.845 174.763L139.339 174.602C139.334 174.662 139.318 174.718 139.313 174.778L78.8232 148.513C78.9075 147.838 78.9549 147.148 78.9549 146.453C78.9549 144.072 78.4641 141.714 77.5103 139.514C76.5566 137.314 75.1588 135.315 73.3965 133.631C71.6343 131.947 69.5423 130.612 67.2398 129.701C64.9374 128.789 62.4696 128.32 59.9775 128.32C57.4853 128.32 55.0176 128.789 52.7151 129.701C50.4126 130.612 48.3206 131.947 46.5584 133.631C44.7962 135.315 43.3983 137.314 42.4446 139.514C41.4909 141.714 41 144.072 41 146.453C40.9993 148.835 41.4897 151.193 42.4432 153.393C43.3966 155.593 44.7945 157.593 46.5568 159.277C48.3192 160.96 50.4115 162.296 52.7143 163.207C55.017 164.118 57.4851 164.587 59.9775 164.586C65.5321 164.586 70.5123 162.295 73.98 158.659L135.761 185.494L135.682 185.68L135.977 185.776C135.692 187.528 135.408 189.27 135.408 191.088C135.405 195.766 136.391 200.396 138.306 204.7C140.222 209.005 143.027 212.896 146.554 216.14L146.464 216.205L115.05 260.598C114.233 260.463 113.395 260.377 112.53 260.377C108.788 260.38 105.2 261.801 102.554 264.33C99.9078 266.858 98.42 270.286 98.4172 273.862C98.42 277.438 99.9078 280.866 102.554 283.395C105.2 285.923 108.788 287.345 112.53 287.347C116.273 287.345 119.861 285.923 122.507 283.395C125.153 280.866 126.641 277.438 126.644 273.862C126.644 271.431 125.951 269.047 124.641 266.963L152.91 227.163L156.651 222.746C161.429 224.868 166.634 225.97 171.903 225.974C181.926 225.974 191.028 222.092 197.637 215.823L234.49 240.955C233.441 243.543 232.73 246.293 232.73 249.218C232.734 255.383 235.299 261.294 239.861 265.653C244.423 270.012 250.61 272.463 257.062 272.467C268.44 272.467 277.957 265 280.624 254.934L364.502 230.144C369.651 239.283 379.748 245.502 391.374 245.502C398.083 245.502 404.27 243.402 409.308 239.892L446.831 273.182C446.626 274.172 446.521 275.179 446.52 276.188C446.52 280.382 448.263 284.404 451.367 287.369C454.47 290.334 458.679 292 463.068 292C467.456 291.999 471.664 290.332 474.766 287.367C477.868 284.402 479.611 280.381 479.611 276.188C479.609 271.997 477.866 267.977 474.764 265.013C471.662 262.049 467.455 260.383 463.068 260.382C459.486 260.38 456.002 261.496 453.144 263.559L417.25 231.72C420.159 227.253 421.956 222.001 421.956 216.361C421.956 202.186 413.203 190.378 397.393 187.775V98.6711C402.663 97.805 403.095 96.2641 405.366 94.2499L475.626 133.769L534.54 212.6C534.036 213.792 533.774 215.065 533.771 216.351C533.771 222.016 538.567 226.609 544.496 226.609C547.341 226.605 550.069 225.523 552.082 223.6C554.094 221.677 555.226 219.07 555.231 216.351C555.226 213.631 554.093 211.024 552.08 209.101C550.066 207.178 547.337 206.097 544.49 206.094C544.332 206.094 544.174 206.109 544.016 206.119L487.468 130.486L539.805 87.89C542.746 89.701 546.172 90.6627 549.671 90.6596ZM360.861 216.351C360.861 217.409 360.929 218.446 361.045 219.473L280.545 243.261C277.794 233.316 268.34 225.964 257.051 225.964C251.133 225.964 245.91 228.235 241.699 231.569L204.609 206.28C206.964 201.648 208.387 196.562 208.387 191.088C208.374 183.863 205.997 176.822 201.589 170.951L244.977 129.473C248.593 131.493 252.556 132.968 257.051 132.968C265.705 132.968 273.278 128.653 277.588 122.157L368.349 197.257C363.701 202.378 360.861 209.04 360.861 216.351ZM386.842 187.765C381.572 188.268 380.86 189.139 378.431 190.292L281.673 110.5C281.683 110.238 281.552 109.986 281.552 109.724C281.552 102.246 277.768 95.6145 272.034 91.3645L302.595 28.7831L303.301 28.8183C306.094 28.8183 308.692 28.0781 310.937 26.8091L372.181 73.282C371.385 75.3717 371.585 77.6176 371.585 79.9692C371.585 88.8166 376.302 96.2742 386.842 98.6761V187.765Z"
    fill="url(#paint1_linear)"/>
  <path
    d="M19.2621 406.62H4.20191C2.97163 406.62 2.08085 406.359 1.52957 405.838C0.979261 405.317 0.704102 404.473 0.704102 403.308V343.694C0.704102 342.529 0.979261 341.685 1.52957 341.163C2.07989 340.642 2.97067 340.382 4.20191 340.382H19.2621C20.4923 340.382 21.3831 340.642 21.9344 341.163C22.4847 341.684 22.7599 342.528 22.7599 343.694V363.658H38.9855V343.694C38.9855 342.529 39.2606 341.685 39.8109 341.163C40.3613 340.642 41.252 340.382 42.4833 340.382H57.5434C58.7737 340.382 59.6645 340.642 60.2157 341.163C60.7661 341.684 61.0412 342.528 61.0412 343.694V403.308C61.0412 404.473 60.7661 405.316 60.2157 405.838C59.6654 406.359 58.7747 406.62 57.5434 406.62H42.4833C41.253 406.62 40.3622 406.359 39.8109 405.838C39.2606 405.317 38.9855 404.473 38.9855 403.308V382.884H22.7599V403.308C22.7599 404.473 22.4847 405.316 21.9344 405.838C21.3841 406.359 20.4933 406.62 19.2621 406.62ZM99.8095 359.701L95.2428 373.685H110.497L105.931 359.701C105.671 359.149 105.396 358.75 105.105 358.504C104.813 358.259 104.473 358.136 104.085 358.136H101.656C101.267 358.136 100.927 358.259 100.636 358.504C100.344 358.75 100.069 359.149 99.811 359.701H99.8095ZM94.2718 390.428V403.308C94.2718 404.473 93.9967 405.316 93.4463 405.838C92.896 406.359 92.0052 406.62 90.774 406.62H76.4918C75.2615 406.62 74.3707 406.359 73.8194 405.838C73.2691 405.317 72.994 404.473 72.994 403.308V379.021C72.994 377.181 73.3018 375.065 73.9174 372.673C74.533 370.281 75.4886 367.491 76.7842 364.302L85.2377 343.418C85.6267 342.375 86.226 341.609 87.0356 341.118C87.8452 340.627 88.8979 340.382 90.1934 340.382H116.33C117.561 340.382 118.581 340.627 119.392 341.118C120.201 341.609 120.801 342.376 121.19 343.418L129.643 364.302C130.939 367.491 131.894 370.281 132.51 372.673C133.126 375.064 133.433 377.18 133.433 379.021V403.308C133.433 404.473 133.158 405.316 132.608 405.838C132.058 406.359 131.167 406.62 129.936 406.62H115.264C113.969 406.62 113.013 406.359 112.398 405.838C111.782 405.317 111.474 404.473 111.474 403.308V390.428H94.2761H94.2718ZM177.832 406.62H147.128C145.898 406.62 145.007 406.359 144.455 405.838C143.905 405.317 143.63 404.473 143.63 403.308V392.544C143.63 391.379 143.905 390.536 144.455 390.014C145.006 389.493 145.897 389.232 147.128 389.232H173.265C174.107 389.232 174.739 388.972 175.159 388.451C175.58 387.93 175.79 387.301 175.79 386.564C175.79 385.521 175.58 384.754 175.159 384.264C174.739 383.773 174.107 383.497 173.265 383.436L158.69 381.505C154.156 380.892 150.512 379.482 147.759 377.274C145.006 375.066 143.63 371.386 143.63 366.234V356.574C143.63 351.361 145.411 347.359 148.973 344.568C152.535 341.777 157.458 340.382 163.742 340.382H190.948C192.179 340.382 193.069 340.642 193.621 341.163C194.171 341.684 194.446 342.528 194.446 343.694V354.641C194.446 355.806 194.171 356.65 193.621 357.172C193.07 357.693 192.18 357.953 190.948 357.953H168.309C167.467 357.953 166.819 358.214 166.366 358.735C165.912 359.256 165.686 359.915 165.686 360.713C165.686 361.51 165.912 362.185 166.366 362.737C166.819 363.289 167.467 363.595 168.309 363.656L182.786 365.496C187.32 366.109 190.98 367.52 193.765 369.728C196.55 371.936 197.942 375.615 197.942 380.767V390.427C197.942 395.64 196.145 399.643 192.55 402.433C188.955 405.224 184.049 406.62 177.83 406.62H177.832ZM227.093 406.62H212.033C210.803 406.62 209.912 406.359 209.361 405.838C208.81 405.317 208.535 404.473 208.535 403.308V343.694C208.535 342.529 208.81 341.685 209.361 341.163C209.911 340.642 210.802 340.382 212.033 340.382H227.093C228.324 340.382 229.214 340.642 229.766 341.163C230.316 341.684 230.591 342.528 230.591 343.694V363.658H246.817V343.694C246.817 342.529 247.092 341.685 247.642 341.163C248.192 340.642 249.083 340.382 250.314 340.382H265.375C266.605 340.382 267.496 340.642 268.047 341.163C268.597 341.684 268.872 342.528 268.872 343.694V403.308C268.872 404.473 268.597 405.316 268.047 405.838C267.497 406.359 266.606 406.62 265.375 406.62H250.314C249.084 406.62 248.193 406.359 247.642 405.838C247.092 405.317 246.817 404.473 246.817 403.308V382.884H230.591V403.308C230.591 404.473 230.316 405.316 229.766 405.838C229.215 406.359 228.325 406.62 227.093 406.62ZM328.822 406.62H305.114C297.017 406.62 291.009 405.086 287.09 402.02C283.172 398.954 281.213 394.231 281.213 387.852V359.241C281.213 352.863 283.172 348.125 287.09 345.028C291.009 341.93 297.017 340.382 305.114 340.382H328.822C330.052 340.382 330.943 340.642 331.494 341.163C332.045 341.684 332.32 342.528 332.32 343.694V354.826C332.32 355.99 332.045 356.834 331.494 357.356C330.944 357.877 330.053 358.137 328.822 358.137H309.293C307.285 358.137 305.795 358.521 304.824 359.287C303.852 360.054 303.366 361.204 303.366 362.737V384.633C303.366 386.166 303.852 387.285 304.824 387.991C305.796 388.697 307.286 389.049 309.293 389.049H328.822C330.052 389.049 330.943 389.31 331.494 389.831C332.045 390.352 332.32 391.195 332.32 392.361V403.309C332.32 404.474 332.045 405.317 331.494 405.839C330.944 406.36 330.053 406.621 328.822 406.621V406.62ZM402.081 357.861V389.232C402.081 392.053 401.644 394.614 400.769 396.914C399.894 399.214 398.34 401.177 396.106 402.802C393.871 404.427 390.794 405.699 386.876 406.62C382.957 407.54 377.986 408 371.961 408C365.938 408 360.95 407.54 356.998 406.62C353.046 405.699 349.953 404.427 347.719 402.802C345.484 401.177 343.929 399.214 343.055 396.914C342.18 394.615 341.743 392.054 341.743 389.232V357.861C341.743 355.04 342.18 352.479 343.055 350.178C343.93 347.879 345.485 345.901 347.719 344.245C349.953 342.589 353.046 341.301 356.998 340.38C360.949 339.46 365.937 339 371.961 339C377.985 339 382.956 339.46 386.876 340.38C390.794 341.301 393.871 342.589 396.106 344.245C398.341 345.901 399.895 347.879 400.769 350.178C401.644 352.478 402.081 355.039 402.081 357.861ZM363.8 361.172V385.92C363.8 387.147 364.286 388.174 365.258 389.002C366.23 389.83 368.465 390.244 371.963 390.244C375.46 390.244 377.695 389.83 378.667 389.002C379.639 388.173 380.125 387.146 380.125 385.92V361.172C380.125 360.008 379.639 359.011 378.667 358.182C377.695 357.354 375.46 356.94 371.963 356.94C368.465 356.94 366.23 357.354 365.258 358.182C364.286 359.011 363.8 360.008 363.8 361.172ZM450.663 406.62H417.919C416.689 406.62 415.798 406.359 415.247 405.838C414.697 405.317 414.422 404.473 414.422 403.308V343.694C414.422 342.529 414.697 341.685 415.247 341.163C415.798 340.642 416.688 340.382 417.919 340.382H450.663C458.76 340.382 464.768 341.915 468.687 344.981C472.605 348.048 474.564 352.77 474.564 359.15V387.853C474.564 394.231 472.605 398.954 468.687 402.021C464.768 405.088 458.76 406.621 450.663 406.621V406.62ZM448.04 357.953H436.477V389.232H448.04C449.595 389.232 450.744 388.864 451.489 388.129C452.234 387.393 452.607 386.259 452.607 384.725V362.37C452.607 360.837 452.234 359.717 451.489 359.012C450.743 358.306 449.594 357.953 448.04 357.953ZM535.485 406.62H490.402C489.172 406.62 488.281 406.359 487.73 405.838C487.18 405.317 486.905 404.473 486.905 403.308V343.694C486.905 342.529 487.18 341.685 487.73 341.163C488.28 340.642 489.171 340.382 490.402 340.382H535.485C536.715 340.382 537.606 340.642 538.157 341.163C538.708 341.684 538.983 342.528 538.983 343.694V354.457C538.983 355.622 538.708 356.466 538.157 356.988C537.607 357.509 536.716 357.769 535.485 357.769H508.668V364.853H527.615C528.845 364.853 529.736 365.113 530.287 365.634C530.838 366.155 531.113 366.999 531.113 368.165V378.009C531.113 379.174 530.838 380.017 530.287 380.539C529.737 381.06 528.846 381.321 527.615 381.321H508.668V389.232H535.485C536.715 389.232 537.606 389.493 538.157 390.014C538.708 390.535 538.983 391.378 538.983 392.544V403.308C538.983 404.473 538.708 405.316 538.157 405.838C537.607 406.359 536.716 406.62 535.485 406.62ZM596.502 406.62H572.794C564.697 406.62 558.689 405.086 554.77 402.02C550.852 398.954 548.893 394.231 548.893 387.852V359.241C548.893 352.863 550.852 348.125 554.77 345.028C558.689 341.93 564.697 340.382 572.794 340.382H596.502C597.732 340.382 598.623 340.642 599.174 341.163C599.725 341.684 600 342.528 600 343.694V354.826C600 355.99 599.725 356.834 599.174 357.356C598.624 357.877 597.733 358.137 596.502 358.137H576.973C574.965 358.137 573.475 358.521 572.504 359.287C571.532 360.054 571.046 361.204 571.046 362.737V384.633C571.046 386.166 571.532 387.285 572.504 387.991C573.476 388.697 574.966 389.049 576.973 389.049H596.502C597.732 389.049 598.623 389.31 599.174 389.831C599.725 390.352 600 391.195 600 392.361V403.309C600 404.474 599.725 405.317 599.174 405.839C598.624 406.36 597.733 406.621 596.502 406.621V406.62Z"
    fill="#042440"/>
  <defs>
    <linearGradient id="paint0_linear" x1="41" y1="146" x2="568" y2="146" gradientUnits="userSpaceOnUse">
      <stop stop-color="#FFC04A"/>
      <stop offset="1" stop-color="#FF6347"/>
    </linearGradient>
    <linearGradient id="paint1_linear" x1="41" y1="146" x2="568" y2="146" gradientUnits="userSpaceOnUse">
      <stop stop-color="#FFC04A"/>
      <stop offset="1" stop-color="#FF6347"/>
    </linearGradient>
  </defs>
</svg>
